PathFileType	4	(X/Y/Z)	C:\Users\italobelli\Desktop\GitHub\PTbot_officialCBL\Personal_Results\FLX03_noisy2.trc
DataRate	CameraRate	NumFrames	NumMarkers	Units	OrigDataRate	OrigDataStartFrame	OrigNumFrames
106.125000	106.125000	51	9	m	106.125000	744	850
Frame#	Time		gu		centelbow		EpL		centpxt8		centijc7		ij		ts		aa		ai
			X1	Y1	Z1	X2	Y2	Z2	X3	Y3	Z3	X4	Y4	Z4	X5	Y5	Z5	X6	Y6	Z6	X7	Y7	Z7	X8	Y8	Z8	X9	Y9	Z9

744	7.0012	-0.077041	-0.014648	0.16737	-0.13846	-0.25341	0.17329	-0.11828	-0.25168	0.19837	-0.046816	-0.15316	-0.008669	-0.046816	0.031938	-0.008669	0	0	0	-0.13338	0.025319	0.050446	-0.10847	0.021735	0.16703	-0.1437	-0.087653	0.054509
745	7.0106	-0.077045	-0.014641	0.16737	-0.13833	-0.25333	0.17328	-0.11816	-0.2516	0.19837	-0.046816	-0.15316	-0.008669	-0.046816	0.031938	-0.008669	0	0	0	-0.13338	0.025316	0.050441	-0.10849	0.021739	0.16703	-0.1437	-0.087656	0.054503
746	7.02	-0.07705	-0.014634	0.16737	-0.13819	-0.25325	0.17329	-0.11803	-0.25151	0.19839	-0.046816	-0.15316	-0.008669	-0.046816	0.031938	-0.008669	0	0	0	-0.13338	0.025314	0.050435	-0.10851	0.021743	0.16703	-0.14369	-0.087658	0.054497
747	7.0294	-0.077058	-0.014627	0.16738	-0.13805	-0.25316	0.17331	-0.11789	-0.25142	0.19842	-0.046816	-0.15316	-0.008669	-0.046816	0.031938	-0.008669	0	0	0	-0.13338	0.025311	0.050429	-0.10854	0.021747	0.16703	-0.14369	-0.087661	0.05449
748	7.0389	-0.077067	-0.01462	0.16738	-0.13789	-0.25307	0.17335	-0.11774	-0.25133	0.19847	-0.046816	-0.15316	-0.008669	-0.046816	0.031938	-0.008669	0	0	0	-0.13338	0.025308	0.050424	-0.10856	0.021751	0.16703	-0.14368	-0.087665	0.054484
749	7.0483	-0.077078	-0.014613	0.16738	-0.13773	-0.25299	0.1734	-0.11759	-0.25124	0.19853	-0.046816	-0.15316	-0.008669	-0.046816	0.031938	-0.008669	0	0	0	-0.13338	0.025304	0.050418	-0.10858	0.021754	0.16703	-0.14368	-0.087668	0.054478
750	7.0577	-0.07709	-0.014605	0.16738	-0.13755	-0.2529	0.17347	-0.11742	-0.25114	0.1986	-0.046816	-0.15316	-0.008669	-0.046816	0.031938	-0.008669	0	0	0	-0.13338	0.0253	0.050412	-0.1086	0.021757	0.16702	-0.14368	-0.087672	0.054472
751	7.0671	-0.077104	-0.014598	0.16738	-0.13737	-0.2528	0.17354	-0.11725	-0.25105	0.19868	-0.046816	-0.15316	-0.008669	-0.046816	0.031938	-0.008669	0	0	0	-0.13338	0.025296	0.050406	-0.10862	0.02176	0.16702	-0.14368	-0.087676	0.054466
752	7.0766	-0.077119	-0.014591	0.16738	-0.13719	-0.25271	0.17363	-0.11708	-0.25095	0.19878	-0.046816	-0.15316	-0.008669	-0.046816	0.031938	-0.008669	0	0	0	-0.13338	0.025292	0.050401	-0.10865	0.021762	0.16702	-0.14367	-0.087681	0.05446
753	7.086	-0.077136	-0.014584	0.16738	-0.137	-0.25262	0.17373	-0.11689	-0.25085	0.19888	-0.046816	-0.15316	-0.008669	-0.046816	0.031938	-0.008669	0	0	0	-0.13338	0.025287	0.050395	-0.10867	0.021764	0.16702	-0.14367	-0.087685	0.054454
754	7.0954	-0.077155	-0.014577	0.16739	-0.1368	-0.25252	0.17384	-0.1167	-0.25074	0.19899	-0.046816	-0.15316	-0.008669	-0.046816	0.031938	-0.008669	0	0	0	-0.13338	0.025283	0.050389	-0.10869	0.021766	0.16702	-0.14367	-0.08769	0.054449
755	7.1048	-0.077174	-0.014569	0.16739	-0.1366	-0.25242	0.17396	-0.11651	-0.25064	0.19912	-0.046816	-0.15316	-0.008669	-0.046816	0.031938	-0.008669	0	0	0	-0.13339	0.025278	0.050383	-0.10871	0.021768	0.16702	-0.14367	-0.087695	0.054443
756	7.1143	-0.077195	-0.014562	0.16739	-0.13639	-0.25233	0.17409	-0.11631	-0.25053	0.19925	-0.046816	-0.15316	-0.008669	-0.046816	0.031938	-0.008669	0	0	0	-0.13339	0.025272	0.050377	-0.10874	0.021769	0.16702	-0.14366	-0.0877	0.054438
757	7.1237	-0.077217	-0.014554	0.16739	-0.13618	-0.25223	0.17422	-0.1161	-0.25043	0.19939	-0.046816	-0.15316	-0.008669	-0.046816	0.031938	-0.008669	0	0	0	-0.13339	0.025267	0.050371	-0.10876	0.021771	0.16702	-0.14366	-0.087706	0.054433
758	7.1331	-0.07724	-0.014547	0.16739	-0.13596	-0.25213	0.17437	-0.11589	-0.25032	0.19954	-0.046816	-0.15316	-0.008669	-0.046816	0.031938	-0.008669	0	0	0	-0.13339	0.025262	0.050365	-0.10878	0.021772	0.16702	-0.14366	-0.087711	0.054428
759	7.1425	-0.077263	-0.014539	0.16739	-0.13574	-0.25203	0.17452	-0.11568	-0.25021	0.19969	-0.046816	-0.15316	-0.008669	-0.046816	0.031938	-0.008669	0	0	0	-0.1334	0.025256	0.050359	-0.10881	0.021773	0.16702	-0.14366	-0.087717	0.054423
760	7.1519	-0.077288	-0.014531	0.16739	-0.13552	-0.25193	0.17468	-0.11546	-0.2501	0.19985	-0.046816	-0.15316	-0.008669	-0.046816	0.031938	-0.008669	0	0	0	-0.1334	0.025251	0.050354	-0.10883	0.021774	0.16701	-0.14366	-0.087723	0.054419
761	7.1614	-0.077314	-0.014523	0.16739	-0.13529	-0.25183	0.17484	-0.11524	-0.24999	0.20002	-0.046816	-0.15316	-0.008669	-0.046816	0.031938	-0.008669	0	0	0	-0.1334	0.025245	0.050348	-0.10885	0.021774	0.16701	-0.14366	-0.087729	0.054414
762	7.1708	-0.07734	-0.014515	0.1674	-0.13506	-0.25172	0.17501	-0.11502	-0.24988	0.20019	-0.046816	-0.15316	-0.008669	-0.046816	0.031938	-0.008669	0	0	0	-0.1334	0.025239	0.050342	-0.10887	0.021775	0.16701	-0.14366	-0.087735	0.05441
763	7.1802	-0.077367	-0.014506	0.1674	-0.13483	-0.25162	0.17519	-0.11479	-0.24977	0.20037	-0.046816	-0.15316	-0.008669	-0.046816	0.031938	-0.008669	0	0	0	-0.13341	0.025233	0.050337	-0.1089	0.021776	0.16701	-0.14366	-0.087741	0.054406
764	7.1896	-0.077395	-0.014498	0.1674	-0.1346	-0.25152	0.17537	-0.11456	-0.24965	0.20055	-0.046816	-0.15316	-0.008669	-0.046816	0.031938	-0.008669	0	0	0	-0.13341	0.025227	0.050331	-0.10892	0.021776	0.16701	-0.14366	-0.087747	0.054403
765	7.1991	-0.077423	-0.014489	0.1674	-0.13437	-0.25142	0.17555	-0.11433	-0.24954	0.20074	-0.046816	-0.15316	-0.008669	-0.046816	0.031938	-0.008669	0	0	0	-0.13342	0.025221	0.050325	-0.10894	0.021777	0.16701	-0.14366	-0.087753	0.054399
766	7.2085	-0.077452	-0.01448	0.1674	-0.13413	-0.25131	0.17574	-0.11411	-0.24943	0.20092	-0.046816	-0.15316	-0.008669	-0.046816	0.031938	-0.008669	0	0	0	-0.13342	0.025215	0.05032	-0.10897	0.021777	0.16701	-0.14366	-0.087759	0.054396
767	7.2179	-0.077481	-0.014471	0.1674	-0.1339	-0.25121	0.17593	-0.11388	-0.24931	0.20111	-0.046816	-0.15316	-0.008669	-0.046816	0.031938	-0.008669	0	0	0	-0.13342	0.025209	0.050314	-0.10899	0.021778	0.16701	-0.14366	-0.087765	0.054393
768	7.2273	-0.07751	-0.014461	0.1674	-0.13367	-0.25111	0.17612	-0.11365	-0.2492	0.2013	-0.046816	-0.15316	-0.008669	-0.046816	0.031938	-0.008669	0	0	0	-0.13343	0.025203	0.050309	-0.10901	0.021778	0.16701	-0.14366	-0.087771	0.054391
769	7.2367	-0.077539	-0.014451	0.1674	-0.13343	-0.251	0.17631	-0.11342	-0.24909	0.2015	-0.046816	-0.15316	-0.008669	-0.046816	0.031938	-0.008669	0	0	0	-0.13343	0.025197	0.050304	-0.10903	0.021779	0.167	-0.14366	-0.087777	0.054388
770	7.2462	-0.077569	-0.014441	0.1674	-0.1332	-0.2509	0.1765	-0.11319	-0.24898	0.20169	-0.046816	-0.15316	-0.008669	-0.046816	0.031938	-0.008669	0	0	0	-0.13344	0.025192	0.050299	-0.10906	0.02178	0.167	-0.14366	-0.087783	0.054387
771	7.2556	-0.077599	-0.014431	0.1674	-0.13297	-0.2508	0.1767	-0.11296	-0.24886	0.20188	-0.046816	-0.15316	-0.008669	-0.046816	0.031938	-0.008669	0	0	0	-0.13344	0.025186	0.050294	-0.10908	0.02178	0.167	-0.14366	-0.087789	0.054385
772	7.265	-0.077629	-0.01442	0.1674	-0.13274	-0.2507	0.17689	-0.11274	-0.24875	0.20208	-0.046816	-0.15316	-0.008669	-0.046816	0.031938	-0.008669	0	0	0	-0.13345	0.02518	0.050289	-0.1091	0.021781	0.167	-0.14366	-0.087795	0.054384
773	7.2744	-0.077659	-0.01441	0.1674	-0.13251	-0.2506	0.17708	-0.11251	-0.24864	0.20227	-0.046816	-0.15316	-0.008669	-0.046816	0.031938	-0.008669	0	0	0	-0.13346	0.025175	0.050284	-0.10912	0.021782	0.167	-0.14366	-0.0878	0.054383
774	7.2839	-0.077688	-0.014398	0.16741	-0.13229	-0.2505	0.17727	-0.11229	-0.24853	0.20246	-0.046816	-0.15316	-0.008669	-0.046816	0.031938	-0.008669	0	0	0	-0.13346	0.025169	0.050279	-0.10915	0.021783	0.167	-0.14366	-0.087806	0.054382
775	7.2933	-0.077718	-0.014387	0.16741	-0.13207	-0.2504	0.17746	-0.11207	-0.24842	0.20264	-0.046816	-0.15316	-0.008669	-0.046816	0.031938	-0.008669	0	0	0	-0.13347	0.025164	0.050274	-0.10917	0.021784	0.167	-0.14367	-0.087811	0.054382
776	7.3027	-0.077747	-0.014375	0.16741	-0.13185	-0.2503	0.17764	-0.11186	-0.24831	0.20283	-0.046816	-0.15316	-0.008669	-0.046816	0.031938	-0.008669	0	0	0	-0.13347	0.025159	0.05027	-0.10919	0.021786	0.167	-0.14367	-0.087817	0.054382
777	7.3121	-0.077776	-0.014363	0.16741	-0.13164	-0.2502	0.17782	-0.11165	-0.2482	0.20301	-0.046816	-0.15316	-0.008669	-0.046816	0.031938	-0.008669	0	0	0	-0.13348	0.025154	0.050266	-0.10921	0.021787	0.167	-0.14367	-0.087822	0.054383
778	7.3216	-0.077804	-0.01435	0.16741	-0.13143	-0.2501	0.178	-0.11144	-0.2481	0.20319	-0.046816	-0.15316	-0.008669	-0.046816	0.031938	-0.008669	0	0	0	-0.13349	0.025149	0.050262	-0.10923	0.021789	0.167	-0.14367	-0.087827	0.054384
779	7.331	-0.077832	-0.014337	0.16741	-0.13123	-0.25001	0.17817	-0.11124	-0.24799	0.20336	-0.046816	-0.15316	-0.008669	-0.046816	0.031938	-0.008669	0	0	0	-0.13349	0.025145	0.050257	-0.10925	0.021791	0.167	-0.14368	-0.087831	0.054386
780	7.3404	-0.07786	-0.014324	0.16741	-0.13103	-0.24991	0.17834	-0.11105	-0.24789	0.20353	-0.046816	-0.15316	-0.008669	-0.046816	0.031938	-0.008669	0	0	0	-0.1335	0.02514	0.050254	-0.10928	0.021793	0.167	-0.14368	-0.087836	0.054388
781	7.3498	-0.077886	-0.01431	0.16741	-0.13083	-0.24982	0.1785	-0.11086	-0.24779	0.20369	-0.046816	-0.15316	-0.008669	-0.046816	0.031938	-0.008669	0	0	0	-0.13351	0.025136	0.05025	-0.1093	0.021796	0.16699	-0.14368	-0.08784	0.05439
782	7.3592	-0.077912	-0.014296	0.16741	-0.13065	-0.24973	0.17865	-0.11067	-0.24769	0.20384	-0.046816	-0.15316	-0.008669	-0.046816	0.031938	-0.008669	0	0	0	-0.13351	0.025133	0.050246	-0.10932	0.021799	0.16699	-0.14369	-0.087844	0.054393
783	7.3687	-0.077938	-0.014281	0.16741	-0.13047	-0.24964	0.1788	-0.11049	-0.24759	0.20399	-0.046816	-0.15316	-0.008669	-0.046816	0.031938	-0.008669	0	0	0	-0.13352	0.025129	0.050243	-0.10934	0.021802	0.16699	-0.14369	-0.087848	0.054396
784	7.3781	-0.077962	-0.014266	0.16741	-0.13029	-0.24955	0.17894	-0.11032	-0.24749	0.20413	-0.046816	-0.15316	-0.008669	-0.046816	0.031938	-0.008669	0	0	0	-0.13353	0.025126	0.05024	-0.10936	0.021805	0.16699	-0.14369	-0.087852	0.0544
785	7.3875	-0.077985	-0.014251	0.16741	-0.13013	-0.24946	0.17907	-0.11016	-0.2474	0.20426	-0.046816	-0.15316	-0.008669	-0.046816	0.031938	-0.008669	0	0	0	-0.13353	0.025123	0.050237	-0.10938	0.021809	0.16699	-0.1437	-0.087855	0.054404
786	7.3969	-0.078008	-0.014235	0.16741	-0.12997	-0.24938	0.17919	-0.11	-0.2473	0.20439	-0.046816	-0.15316	-0.008669	-0.046816	0.031938	-0.008669	0	0	0	-0.13354	0.025121	0.050234	-0.10939	0.021813	0.16699	-0.1437	-0.087858	0.054409
787	7.4064	-0.078029	-0.014218	0.16741	-0.12982	-0.24929	0.1793	-0.10985	-0.24721	0.2045	-0.046816	-0.15316	-0.008669	-0.046816	0.031938	-0.008669	0	0	0	-0.13355	0.025118	0.050231	-0.10941	0.021817	0.16699	-0.14371	-0.08786	0.054414
788	7.4158	-0.078049	-0.014201	0.16741	-0.12967	-0.24921	0.1794	-0.10972	-0.24712	0.20461	-0.046816	-0.15316	-0.008669	-0.046816	0.031938	-0.008669	0	0	0	-0.13356	0.025116	0.050229	-0.10943	0.021822	0.16699	-0.14371	-0.087862	0.05442
789	7.4252	-0.078068	-0.014184	0.16741	-0.12954	-0.24913	0.17949	-0.10959	-0.24704	0.2047	-0.046816	-0.15316	-0.008669	-0.046816	0.031938	-0.008669	0	0	0	-0.13356	0.025115	0.050227	-0.10945	0.021827	0.16699	-0.14372	-0.087864	0.054427
790	7.4346	-0.078086	-0.014166	0.16741	-0.12942	-0.24906	0.17957	-0.10947	-0.24696	0.20478	-0.046816	-0.15316	-0.008669	-0.046816	0.031938	-0.008669	0	0	0	-0.13357	0.025114	0.050225	-0.10947	0.021832	0.16699	-0.14372	-0.087865	0.054434
791	7.4441	-0.078102	-0.014148	0.16741	-0.12931	-0.24898	0.17964	-0.10936	-0.24687	0.20486	-0.046816	-0.15316	-0.008669	-0.046816	0.031938	-0.008669	0	0	0	-0.13358	0.025113	0.050223	-0.10949	0.021838	0.16699	-0.14373	-0.087866	0.054441
792	7.4535	-0.078117	-0.014128	0.16741	-0.1292	-0.24891	0.1797	-0.10926	-0.2468	0.20492	-0.046816	-0.15316	-0.008669	-0.046816	0.031938	-0.008669	0	0	0	-0.13359	0.025113	0.050222	-0.1095	0.021845	0.16699	-0.14373	-0.087867	0.054449
793	7.4629	-0.078131	-0.014109	0.16741	-0.12911	-0.24884	0.17974	-0.10917	-0.24672	0.20496	-0.046816	-0.15316	-0.008669	-0.046816	0.031938	-0.008669	0	0	0	-0.1336	0.025113	0.05022	-0.10952	0.021852	0.16699	-0.14374	-0.087867	0.054458
794	7.4723	-0.078142	-0.014089	0.16741	-0.12903	-0.24877	0.17976	-0.10909	-0.24665	0.205	-0.046816	-0.15316	-0.008669	-0.046816	0.031938	-0.008669	0	0	0	-0.1336	0.025114	0.050219	-0.10954	0.021859	0.16699	-0.14374	-0.087867	0.054467
